<svg width="4938" height="4937" viewBox="0 0 4938 4937" fill="none" xmlns="http://www.w3.org/2000/svg">
<path fill-rule="evenodd" clip-rule="evenodd" d="M2393.6 0.463036C2098.71 10.236 1825.29 66.564 1558.6 172.481C1269.26 287.393 1010.94 451.158 782.099 664.757C760.124 685.268 705.547 739.435 681.338 764.761C489.473 965.478 332.504 1198.06 218.321 1450.82C92.4489 1729.45 20.277 2024.76 3.62597 2329.29C-1.02503 2414.38 -1.21103 2513.35 3.12197 2598.29C16.938 2869.14 75.4199 3135.4 176.287 3386.7C314.766 3731.72 526.638 4037.31 803.099 4290.8C1165.83 4623.38 1624.55 4840.95 2111.1 4911.19C2318.78 4941.18 2532.84 4944.74 2743.1 4921.71C3202.92 4871.36 3643.35 4689.39 4006.1 4399.9C4155.48 4280.69 4293.98 4141.13 4412.1 3990.79C4687.5 3640.28 4863.61 3217.71 4918.04 2776.79C4938.07 2614.5 4942.31 2448.62 4930.56 2286.29C4908.52 1981.65 4830.86 1687.11 4699.25 1409.11C4602.76 1205.28 4476.18 1012.87 4326.02 841.795C4045.57 522.274 3692.81 282.456 3295.71 141.361C3055.97 56.177 2811.78 9.95904 2553.1 0.806038C2528.46 -0.0659621 2416.8 -0.305964 2393.6 0.463036ZM2543.1 180.797C2720.34 187.128 2885.28 211.19 3051.1 254.907C3416.53 351.247 3751.65 536.965 4031.6 798.279C4073.45 837.347 4137.83 903.472 4178.15 948.813C4387.29 1184 4545.05 1457.58 4642.91 1754.8C4747.89 2073.66 4780.98 2414.33 4739.53 2749.79C4701.51 3057.54 4601.4 3353.05 4444.33 3621.24C4264.12 3928.93 4012.37 4192.71 3713.1 4387.43C3291.79 4661.56 2795.78 4788.08 2292.6 4749.78C1879.12 4718.31 1482.1 4574.17 1143.31 4332.54C917.198 4171.28 722.427 3971.1 567.845 3741.09C338.91 3400.45 206.795 3007.31 183.644 2597.79C180.722 2546.1 179.812 2502.61 180.434 2444.29C181.035 2387.92 181.618 2371 184.634 2322.29C205.738 1981.55 305.235 1646.19 473.912 1347.3C561.29 1192.46 665.242 1049.86 788.101 916.295C813.005 889.221 889.525 812.701 916.599 787.797C1060.78 655.172 1214.85 545.007 1385.1 452.816C1415.44 436.388 1490.82 398.884 1521.6 384.906C1796.99 259.843 2086.49 191.766 2389.1 180.909C2422.03 179.728 2511.34 179.663 2543.1 180.797ZM1485.7 582.927C1485.22 585.221 1482.24 658.47 1480.01 722.795C1477.39 798.487 1479.35 848.443 1487.59 915.795C1488.9 926.52 1490.48 940.245 1491.09 946.295C1497.27 1007.23 1517.69 1112.4 1533.09 1162.66C1535.22 1169.61 1540.61 1187.9 1545.07 1203.3C1554.05 1234.33 1559.13 1249.82 1571.76 1284.71C1591.69 1339.8 1605.78 1372.42 1633.07 1426.62C1653.53 1467.26 1662.27 1483.04 1680.25 1511.8C1686.61 1521.97 1695.77 1536.82 1700.6 1544.8C1722.91 1581.61 1753.86 1624.18 1789.54 1667.08C1797.87 1677.1 1808.9 1690.7 1814.07 1697.3C1844.07 1735.66 1882.27 1777.08 1951.54 1846.36C2011.93 1906.75 2038.19 1931.07 2109.1 1992.3C2207.34 2077.14 2267.74 2130.28 2321.6 2179.3C2364.37 2218.23 2377.92 2230.23 2405.16 2253.29C2434.32 2277.99 2449.73 2292.57 2494.6 2337.92C2549.54 2393.45 2575.46 2421.61 2627.06 2481.79C2692.62 2558.27 2715.14 2588.26 2746.83 2641.29C2765.68 2672.83 2773.8 2687.96 2790.9 2723.29C2807.72 2758.04 2813.68 2772.11 2827.13 2808.79C2839.91 2843.65 2843.22 2855.19 2852.58 2897.46C2862.04 2940.21 2866.27 2969.44 2868.03 3004.29C2868.93 3022.24 2867.77 3121.82 2866.58 3128.79C2866.25 3130.72 2865.32 3137.02 2864.53 3142.79C2861.7 3163.25 2853.83 3204.77 2845.96 3240.79C2833.45 3298.04 2833.03 3299.44 2813.6 3349.29C2789.18 3411.94 2771.29 3452.72 2748.03 3498.79C2725.94 3542.53 2705.08 3577.64 2669.01 3631.79C2597.41 3739.28 2521 3831.32 2422.46 3928.79C2315.87 4034.23 2201.64 4126.32 2059.6 4221.3C1965.51 4284.21 1868.04 4342.59 1751.6 4405.78C1705.92 4430.56 1707.35 4429.74 1709.87 4429.77C1716.41 4429.84 1789.27 4400.46 1856.1 4370.81C2005.29 4304.61 2161.06 4224.02 2293.6 4144.46C2464.6 4041.82 2601.7 3940.48 2711 3835.92C2728.31 3819.37 2741.53 3804.61 2793.94 3743.38C2823.01 3709.41 2841.37 3684.63 2884.77 3620.79C2910.33 3583.21 2953.02 3515.55 2969.39 3486.71C2978.93 3469.89 3018.65 3390.18 3027.39 3370.29C3036.2 3350.27 3045.19 3326.71 3052.55 3304.37C3055.46 3295.53 3060.21 3282.22 3063.09 3274.79C3085.81 3216.38 3100.99 3161.85 3117.11 3080.79C3123.33 3049.5 3132.34 2998.64 3134.03 2985.29C3136.59 2965.08 3141.18 2880.51 3141.12 2854.79C3141.06 2831.15 3139.56 2784.96 3138.15 2763.79C3137.59 2755.27 3136.67 2739.71 3136.11 2729.22C3134.63 2701.57 3129.89 2668.04 3122.97 2636.39C3114.56 2597.93 3092.24 2530.11 3070.5 2477C3058.05 2446.57 3027.79 2384.74 3005.56 2344.29C2974.09 2287.03 2924.32 2209.4 2888.22 2161.29C2870.02 2137.04 2831.16 2087.98 2824.21 2080.48C2820.53 2076.52 2799.73 2051.91 2777.98 2025.79C2740.4 1980.66 2721.62 1959.06 2700.22 1936.37C2640.52 1873.06 2615.34 1847.03 2566.6 1798.27C2496.83 1728.45 2471.8 1704.03 2434.5 1669.33C2406.07 1642.89 2366.2 1605.23 2336.63 1576.89C2328.36 1568.96 2310.57 1552.72 2297.1 1540.79C2283.62 1528.87 2262.7 1509.75 2250.6 1498.31C2216.04 1465.64 2191.74 1443.24 2162.58 1417.19C2129.73 1387.84 2123.56 1382.04 2071.1 1331.21C2019.33 1281.04 1931.3 1192.56 1912.02 1171.3C1904.04 1162.5 1889.02 1145.62 1878.64 1133.8C1868.27 1121.97 1855.89 1108.25 1851.13 1103.3C1841.47 1093.25 1793.01 1037.78 1765.07 1004.8C1729.24 962.506 1690.41 912.938 1649.91 857.795C1611.51 805.502 1604.01 793.905 1561.27 720.795C1545.04 693.02 1530.01 667.318 1527.88 663.68C1525.74 660.042 1515.69 640.045 1505.53 619.243C1495.37 598.441 1486.86 581.227 1486.63 580.99C1486.39 580.753 1485.97 581.625 1485.7 582.927ZM1512.14 1495.3C1507.22 1507.8 1494.64 1555.15 1490.21 1577.8C1481.57 1622.01 1479.84 1631.61 1477.09 1650.7C1471.28 1690.91 1469.75 1711.74 1469.71 1750.8C1469.67 1789.54 1470.8 1804.28 1477.17 1848.3C1490.49 1940.27 1517.96 2016.12 1568.42 2100.29C1597.04 2148.03 1632.23 2193.8 1682.22 2248.29C1723.86 2293.69 1807.01 2369.72 1878.1 2427.39C1959.54 2493.45 1999.44 2524.55 2059.77 2568.97C2088.98 2590.48 2167.28 2649.77 2187.99 2666.07C2244.37 2710.44 2302.97 2761.26 2353.6 2809.73C2435.07 2887.71 2457.06 2910.93 2499.03 2963.29C2534.07 3007 2552.03 3031.94 2570.33 3062.29C2624.45 3152.03 2661.12 3262.25 2676.09 3380.16C2677.69 3392.73 2679.23 3403.26 2679.52 3403.55C2680.5 3404.53 2682.08 3398.72 2687.54 3374C2705.75 3291.55 2714.57 3241.43 2718.56 3197.79C2725.17 3125.55 2726.32 3076.53 2722.7 3021.79C2718.58 2959.64 2714.44 2934.55 2700.07 2884.65C2688.63 2844.95 2668.58 2794.33 2646.04 2748.29C2634.47 2724.66 2596.53 2662.19 2572.26 2626.79C2546.2 2588.79 2504.14 2537.97 2451.88 2481.29C2411.74 2437.77 2312.1 2342.81 2257.1 2295.65C2189.43 2237.63 2117.81 2177.37 2082.6 2148.81C2072.15 2140.34 2059.1 2129.53 2053.6 2124.78C2048.1 2120.04 2030.29 2105.1 2014.03 2091.58C1981.89 2064.86 1974.47 2058.43 1944.46 2031.3C1933.51 2021.4 1913.55 2003.62 1900.11 1991.8C1845.5 1943.76 1794.46 1895.53 1763.76 1863C1751.99 1850.51 1729.61 1827.25 1714.05 1811.3C1684.11 1780.61 1671.84 1767.09 1655.51 1746.8C1643.2 1731.49 1620.73 1701.64 1611.87 1688.8C1585.18 1650.13 1552.22 1586.02 1523.96 1517.8C1519.07 1505.97 1514.67 1495.4 1514.19 1494.3C1513.38 1492.45 1513.23 1492.52 1512.14 1495.3ZM3333.1 1922.83C3259.67 1929.77 3193.9 1959.24 3142.26 2008.34C3104.35 2044.38 3076.45 2091.13 3067.18 2134.12C3061.51 2160.39 3063.12 2188.35 3071.35 2206.79C3072.7 2209.82 3081.22 2224.44 3090.28 2239.29C3144.77 2328.58 3173.69 2383.97 3197.82 2445.22C3259.12 2600.86 3270.6 2777.47 3234.51 3009.79C3222.97 3084.13 3208.47 3154.17 3196.23 3194.79C3148.69 3352.59 3089.66 3480.25 3022.61 3570.29C3009.02 3588.54 3007.62 3590.66 3008.57 3591.58C3010.24 3593.2 3037.21 3561.04 3061.2 3528.79C3152.67 3405.84 3244 3247.36 3313.31 3091.29C3352.59 3002.85 3397.73 2865.99 3441.6 2702.29C3450.26 2669.98 3463.56 2617.28 3468.1 2597.29C3470.35 2587.39 3477.07 2559.27 3483.03 2534.79C3488.99 2510.32 3497.8 2474.09 3502.61 2454.29C3524.01 2366.14 3540.31 2321.2 3567.17 2276.31C3605.08 2212.94 3665.55 2154 3762.1 2086.3C3770.62 2080.32 3782.77 2071.54 3789.1 2066.78C3812.84 2048.92 3841.09 2030.6 3882.75 2006.04C3907.15 1991.67 3920.1 1983.25 3920.1 1981.77C3920.1 1980.16 3917.15 1980.57 3888.31 1986.23C3843.48 1995.03 3812.02 1999.4 3775.91 2001.85C3752.79 2003.41 3696.85 2002.57 3677.1 2000.36C3626.34 1994.69 3586.15 1983.96 3543.1 1964.6C3494.06 1942.55 3454.82 1930.82 3409.6 1924.71C3392.44 1922.39 3349.05 1921.33 3333.1 1922.83ZM3535.61 2035.15C3541.06 2037.69 3546.56 2043.26 3548.72 2048.44C3551.99 2056.27 3549.65 2071.39 3544.45 2076.01C3537.7 2082 3524.14 2083.97 3516.6 2080.06C3508.19 2075.69 3504.1 2068.95 3504.1 2059.47C3504.1 2047.72 3508.77 2039.25 3517.48 2035.2C3523.93 2032.19 3529.23 2032.18 3535.61 2035.15ZM1593.77 2330.54C1593.18 2331.51 1590.45 2345.29 1589.08 2354.2C1585.93 2374.57 1586.18 2416.51 1589.61 2443.29C1601.13 2533.37 1638.62 2625.56 1701.87 2719.29C1741.41 2777.91 1787.64 2832.49 1849.23 2893.3C1888.51 2932.07 1925.01 2964.64 1968.03 2999.29C1977.59 3006.99 2001.43 3026.58 2021.01 3042.83C2040.58 3059.07 2068.75 3082.22 2083.6 3094.27C2161.11 3157.17 2199.47 3191.15 2230.41 3224.29C2263.47 3259.71 2287.58 3290.74 2306.57 3322.29C2325.37 3353.53 2350.44 3409.96 2359.51 3441.48C2369.5 3476.21 2374.04 3529.75 2369.71 3561.79C2365.11 3595.87 2353.41 3632.52 2336.54 3665.79C2324.31 3689.89 2294.25 3738.13 2278.41 3759.05C2244.79 3803.47 2190.18 3855.61 2122.87 3907.6C2089.33 3933.49 2023.11 3982.86 1966.6 4024.09C1950.1 4036.13 1936.46 4046.34 1936.3 4046.78C1935.58 4048.72 1964.47 4039.46 1991.6 4029.04C2080.23 3995.02 2199.4 3936.9 2253.67 3901.23C2276.71 3886.08 2325.35 3848.43 2351.1 3825.82C2359.62 3818.33 2370.87 3808.65 2376.1 3804.31C2396.79 3787.13 2421.97 3759.7 2444.05 3730.29C2454.4 3716.5 2484.89 3672.7 2491.73 3661.79C2507.7 3636.32 2518.76 3609.48 2532.54 3562.79C2539.95 3537.69 2542.59 3526.07 2544.02 3512.29C2544.59 3506.79 2545.53 3500.72 2546.1 3498.79C2550.47 3484.07 2552.46 3440.79 2550.13 3410.88C2546.58 3365.11 2529.68 3295.6 2510.63 3248.41C2496.15 3212.52 2483.26 3187.82 2456.3 3144.29C2399.65 3052.82 2344.78 2985.56 2253.96 2896.29C2223.93 2866.78 2210.36 2854.47 2165.1 2815.74C2145.57 2799.03 2081.22 2743.71 2022.1 2692.79C1717.58 2430.57 1599.09 2329.79 1595.27 2329.79C1594.69 2329.79 1594.01 2330.13 1593.77 2330.54Z" fill="white"/>
</svg>
